<svg version="1.1" xmlns="http://www.w3.org/2000/svg" viewBox="0 0 1034.121 158.975" role="img" aria-label="mf-Technologies">
  <path fill="#ed1c24" d="M39.456 117.311v30.178h-2.001h-9.944h-20.4v-30.178h32.345zM127.131 41.918c-13.325 0-24.992 7.095-31.437 17.709-6.443-10.615-18.112-17.709-31.434-17.709-10.575 0-20.1 4.478-26.806 11.623V41.918H7.111v63.049h32.345V85.473c0-8.312 6.74-15.048 15.05-15.048 8.311 0 15.049 6.736 15.049 15.048v62.016h20.828h10.625h1.32V85.473c0-8.312 6.739-15.048 15.048-15.048 8.312 0 15.049 6.736 15.049 15.048v62.016h31.454v-68.82c0-20.298-16.453-36.751-36.748-36.751z"/>
  <path fill="#231f20" d="M239.943 68.188h31.418l-15.849 32.229h-45.41v47.07h-33.88v-79.3h33.88zm-63.721-59.698v47.354h33.88V40.721h74.767l15.85-32.23h-124.497zM347.717 147.269h16.597V56.742h17.351V41.654h-51.298v15.088h17.351v90.527zM392.678 147.269h45.264v-15.088h-28.667V99.742h22.781V84.654h-22.781V56.742h28.667V41.654h-45.264v105.615zM473.849 148.777c7.944 0 14.006-2.263 18.182-6.789 4.172-4.526 6.261-10.913 6.261-19.162V107.89H482.6v16.144c0 6.438-2.768 9.656-8.298 9.656-5.533 0-8.298-3.218-8.298-9.656V65.04c0-6.537 2.765-9.807 8.298-9.807 5.531 0 8.298 3.27 8.298 9.807v12.223h15.691V66.097c0-8.247-2.089-14.637-6.261-19.162-4.175-4.526-10.236-6.789-18.182-6.789-7.946 0-14.008 2.263-18.181 6.789-4.175 4.525-6.261 10.915-6.261 19.162v56.729c0 8.249 2.086 14.636 6.261 19.162 4.173 4.527 10.234 6.789 18.181 6.789zM511.266 147.269h16.598V99.742h17.803v47.526h16.597V41.654h-16.597v43h-17.803v-43h-16.598v105.615zM577.652 147.269h14.786v-77.1h.302l19.916 77.1h17.049V41.654h-14.786v63.218h-.302l-16.145-63.218h-20.82v105.615zM669.082 148.777c8.146 0 14.383-2.313 18.709-6.94 4.324-4.625 6.488-11.165 6.488-19.613V66.7c0-8.449-2.164-14.986-6.488-19.614-4.326-4.626-10.563-6.939-18.709-6.939-8.147 0-14.385 2.313-18.708 6.939-4.326 4.628-6.488 11.165-6.488 19.614v55.522c0 8.448 2.162 14.988 6.488 19.613 4.323 4.628 10.561 6.94 18.708 6.94zm0-15.088c-5.733 0-8.6-3.471-8.6-10.41V65.644c0-6.94 2.866-10.41 8.6-10.41s8.6 3.47 8.6 10.41v57.636c0 6.939-2.867 10.409-8.6 10.409zM708.46 147.269h43.905v-15.088h-27.31V41.654H708.46v105.615zM786.765 148.777c8.147 0 14.384-2.313 18.709-6.94 4.324-4.625 6.488-11.165 6.488-19.613V66.7c0-8.449-2.164-14.986-6.488-19.614-4.325-4.626-10.562-6.939-18.709-6.939-8.146 0-14.385 2.313-18.708 6.939-4.325 4.628-6.487 11.165-6.487 19.614v55.522c0 8.448 2.162 14.988 6.487 19.613 4.323 4.628 10.562 6.94 18.708 6.94zm0-15.088c-5.732 0-8.6-3.471-8.6-10.41V65.644c0-6.94 2.867-10.41 8.6-10.41 5.733 0 8.601 3.47 8.601 10.41v57.636c0 6.939-2.868 10.409-8.601 10.409zM849.68 148.777c8.046 0 14.184-2.287 18.407-6.865 4.225-4.575 6.337-11.139 6.337-19.688V87.672h-23.99v15.088h8.298v20.671c0 6.842-2.866 10.26-8.6 10.26-5.732 0-8.6-3.418-8.6-10.26V65.644c0-6.94 2.867-10.41 8.6-10.41 5.733 0 8.6 3.47 8.6 10.41v10.108h15.691V66.7c0-8.549-2.112-15.111-6.337-19.689-4.225-4.575-10.361-6.864-18.407-6.864-8.048 0-14.182 2.289-18.406 6.864-4.226 4.578-6.338 11.142-6.338 19.689v55.522c0 8.551 2.112 15.113 6.338 19.688 4.224 4.58 10.357 6.867 18.406 6.867zM888.152 147.269h16.597V41.654h-16.597v105.615zM920.136 147.269h45.264v-15.088h-28.667V99.742h22.781V84.654h-22.781V56.742h28.667V41.654h-45.264v105.615zM999.798 148.777c8.147 0 14.357-2.313 18.633-6.94 4.274-4.625 6.412-11.264 6.412-19.916 0-6.639-1.308-12.421-3.923-17.351-2.617-4.927-7.393-10.411-14.333-16.446-5.431-4.727-9.18-8.75-11.24-12.068-2.063-3.319-3.093-6.89-3.093-10.714 0-6.736 2.765-10.107 8.298-10.107 2.715 0 4.776.83 6.187 2.489 1.407 1.658 2.111 4.3 2.111 7.921v5.432h15.691V66.7c0-8.549-2.037-15.111-6.11-19.689-4.073-4.575-10.085-6.864-18.029-6.864-8.05 0-14.184 2.289-18.407 6.864-4.226 4.578-6.337 11.04-6.337 19.389 0 6.136 1.357 11.644 4.074 16.521 2.716 4.88 7.491 10.335 14.333 16.37 5.432 4.729 9.15 8.777 11.165 12.146 2.011 3.371 3.018 7.268 3.018 11.691 0 3.724-.73 6.412-2.188 8.072-1.459 1.659-3.598 2.489-6.411 2.489-5.733 0-8.601-3.418-8.601-10.26v-7.242h-15.69v6.035c0 8.551 2.061 15.113 6.186 19.688 4.125 4.58 10.21 6.867 18.258 6.867z"/>
</svg>
