<svg xmlns="http://www.w3.org/2000/svg" viewBox="0 0 164 159" role="img" aria-label="mf-Technologies mark">
  <path fill="#ed1c24" d="M39.456 117.311v30.178h-2.001h-9.944h-20.4v-30.178h32.345zM127.131 41.918c-13.325 0-24.992 7.095-31.437 17.709-6.443-10.615-18.112-17.709-31.434-17.709-10.575 0-20.1 4.478-26.806 11.623V41.918H7.111v63.049h32.345V85.473c0-8.312 6.74-15.048 15.05-15.048 8.311 0 15.049 6.736 15.049 15.048v62.016h20.828h10.625h1.32V85.473c0-8.312 6.739-15.048 15.048-15.048 8.312 0 15.049 6.736 15.049 15.048v62.016h31.454v-68.82c0-20.298-16.453-36.751-36.748-36.751z"/>
</svg>
